# xmcd
#
# Track frame offsets:
#	150
#	18650
#	37202
#	55522
#	73255
#	89487
#	103292
#	117375
#	134342
#	151125
#	167532
#	186034
#	204585
#	222905
#	240637
#	256870
#	270675
#	284757
#	301725
#	318507
#
# Disc length: 4465
#
# Revision: 1
# Processed by: cddbd v1.5.2PL0 Copyright (c) Steve Scherf et al.
# Submitted via: kTunes Lite (development) 1.0patch41.20
#
DISCID=2c116f14
DTITLE=Compilation - THM-C0601
DYEAR=2006
DGENRE=Karaoke
TTITLE0=Kenny Chesney - Who You'd Be Today (vocals)
TTITLE1=Sugarland - Just Might (Make Me Belive) (vocals)
TTITLE2=Trace Adkins - Honky Tonk Badonkadonk (vocals)
TTITLE3=Brad Paisley - When I Get Where I'm Going (vocals)
TTITLE4=Tim McGraw - My Old Friend (vocals)
TTITLE5=Miranda Lambert - Kerosene (vocals)
TTITLE6=Trick Pony - Ain't Wastin' Good Whiskey On You (vocals)
TTITLE7=Wynonna Judd - Attitude (vocals)
TTITLE8=Keith Anderson - XXL (vocals)
TTITLE9=Danielle Peck - I Don't (vocals)
TTITLE10=Kenny Chesney - Who You'd Be Today
TTITLE11=Sugarland - Just Might (Make Me Belive)
TTITLE12=Trace Adkins - Honky Tonk Badonkadonk
TTITLE13=Brad Paisley - When I Get Where I'm Going
TTITLE14=Tim McGraw - My Old Friend
TTITLE15=Miranda Lambert - Kerosene
TTITLE16=Trick Pony - Ain't Wastin' Good Whiskey On You
TTITLE17=Wynonna Judd - Attitude
TTITLE18=Keith Anderson - XXL
TTITLE19=Danielle Peck - I Don't 
EXTD=
EXTT0=
EXTT1=
EXTT2=
EXTT3=
EXTT4=
EXTT5=
EXTT6=
EXTT7=
EXTT8=
EXTT9=
EXTT10=
EXTT11=
EXTT12=
EXTT13=
EXTT14=
EXTT15=
EXTT16=
EXTT17=
EXTT18=
EXTT19=
PLAYORDER=
